<?xml version="1.0" encoding="utf-8"?>
<!-- Generator: Adobe Illustrator 25.2.3, SVG Export Plug-In . SVG Version: 6.00 Build 0)  -->
<svg version="1.1" id="Capa_1" xmlns="http://www.w3.org/2000/svg" xmlns:xlink="http://www.w3.org/1999/xlink" x="0px" y="0px"
	 viewBox="0 0 512 512" style="enable-background:new 0 0 512 512;" xml:space="preserve">
<style type="text/css">
	.st0{fill:#F2F2F2;stroke:#726E75;stroke-miterlimit:10;}
	.st1{fill:#DDDFDF;stroke:#726E75;stroke-miterlimit:10;}
	.st2{fill:#B2B2B2;stroke:#726E75;stroke-miterlimit:10;}
	.st3{fill:#EDDFD4;stroke:#726E75;stroke-miterlimit:10;}
	.st4{fill:#FFFFFF;stroke:#726E75;stroke-miterlimit:10;}
	.st5{fill:#CBD6E0;stroke:#726E75;stroke-miterlimit:10;}
	.st6{opacity:5.000000e-02;fill:#3F4347;stroke:#726E75;stroke-miterlimit:10;enable-background:new    ;}
	.st7{opacity:0.1;}
	.st8{opacity:0.2;}
</style>
<circle class="st0" cx="256" cy="256" r="256"/>
<path class="st1" d="M440.5,78.5C389.4,132,311.3,185.3,311.3,185.3S307.9,90.6,258.9,0C330.2,0.8,394.5,30.8,440.5,78.5z"/>
<path class="st2" d="M511.6,270.5c-5.5,97.7-65.7,180.8-150.5,219c6-149.5-49.8-293.9-49.8-293.9S414.7,173.6,511.6,270.5z"/>
<path class="st3" d="M311.3,195.6C232.4,336.1,151.3,412.3,92.5,453C36,406,0,335.2,0,256c0-36.1,7.5-70.5,21.1-101.6
	C199.4,117.6,311.3,195.6,311.3,195.6z"/>
<circle class="st4" cx="311.3" cy="195.5" r="40.3"/>
<circle class="st5" cx="311.3" cy="195.5" r="26.3"/>
<path class="st6" d="M75,437c46.3,46.3,110.3,75,181,75c141.4,0,256-114.6,256-256c0-70.7-28.7-134.7-75-181
	c10.7,29.8,16.6,61.8,16.6,95.3c0,156.5-126.9,283.4-283.4,283.4C136.8,453.7,104.8,447.7,75,437z"/>
<g class="st7">
	<path class="st4" d="M0,256c0,39.4,9.2,76.6,25.1,110c105.5-13,214.7-122.3,250.8-255.3C286.4,71.8,289.4,35,286.1,1.9
		C276.2,0.8,266.2,0,256,0C114.6,0,0,114.6,0,256z"/>
</g>
<g class="st8">
	
		<ellipse transform="matrix(0.5315 -0.847 0.847 0.5315 -61.7394 177.2601)" class="st4" cx="129.4" cy="144.4" rx="93.4" ry="55.5"/>
</g>
</svg>
