<?xml version="1.0" encoding="utf-8"?>
<!-- Generator: Adobe Illustrator 25.2.3, SVG Export Plug-In . SVG Version: 6.00 Build 0)  -->
<svg version="1.1" id="Layer_1" xmlns="http://www.w3.org/2000/svg" xmlns:xlink="http://www.w3.org/1999/xlink" x="0px" y="0px"
	 viewBox="0 0 289.9 289.9" style="enable-background:new 0 0 289.9 289.9;" xml:space="preserve">
<style type="text/css">
	.st0{fill:#E6E6E6;}
</style>
<g>
	<g>
		<g>
			<path class="st0" d="M288.1,238.8l-35.7-9.6L67.6,44.4l11.6-11.6c1.3-1.3,0.7-3.6-1.1-4.1L25.6,14.7c-1.8-0.5-3.5,1.2-3,3
				l14.1,52.5c0.5,1.8,2.7,2.4,4.1,1.1l11.6-11.6l88.6,88.6L60,229.2l-35.7,9.6c-1.8,0.5-2.4,2.7-1.1,4.1l38.5,38.5
				c1.3,1.3,3.6,0.7,4.1-1.1l9.6-35.8l80.9-80.9l80.9,80.9l9.6,35.8c0.5,1.8,2.7,2.4,4.1,1.1l38.5-38.5
				C290.5,241.5,289.9,239.3,288.1,238.8z"/>
			<path class="st0" d="M178.9,125.7c4.2,4.2,11,4.2,15.1,0l66-66l11.6,11.6c1.3,1.3,3.6,0.7,4.1-1.1l14.1-52.5c0.5-1.8-1.2-3.5-3-3
				l-52.5,14.1c-1.8,0.5-2.4,2.7-1.1,4.1l11.6,11.6l-66,66c-4.2,4.2-4.2,10.9,0,15.1C178.8,125.6,178.9,125.6,178.9,125.7z"/>
			<polygon class="st0" points="146.8,18.4 146.9,18.4 160,40.9 168.3,40.9 168.3,5.1 160,5.1 160,27.6 159.9,27.6 146.8,5.1 
				138.5,5.1 138.5,40.9 146.8,40.9 			"/>
			<polygon class="st0" points="36.1,160.4 44.3,124.6 35.9,124.6 31.5,147.8 31.4,147.8 25.3,124.6 19,124.6 12.9,147.9 
				12.8,147.8 8.4,124.6 0,124.6 8.2,160.4 16.1,160.4 22.1,138.3 22.2,138.3 28.2,160.4 			"/>
			<polygon class="st0" points="281.4,131 281.4,124.6 257.9,124.6 257.9,160.4 281.4,160.4 281.4,154 266.2,154 266.2,145.1 
				278.9,145.1 278.9,138.7 266.2,138.7 266.2,131 			"/>
			<path class="st0" d="M162.1,267.4c-2.1-1.8-5.3-3.3-9.4-4.5c-2.4-1-4.1-1.7-5-2.4c-0.9-0.6-1.3-1.5-1.3-2.5c0-1.1,0.4-2,1.3-2.7
				c0.9-0.7,2.1-1.1,3.6-1.1c1.9,0,3.2,0.4,4.2,1.1c0.9,0.8,1.4,2,1.4,3.7h8.1l0-0.1c0.1-3.5-1.1-6.2-3.6-8.1
				c-2.5-1.9-5.8-2.9-9.9-2.9c-3.9,0-7.1,0.9-9.6,2.8c-2.5,1.9-3.8,4.3-3.8,7.3c0,3.1,1.1,5.4,3.2,7.1c2.2,1.6,5.5,3.2,9.9,4.6
				c2.2,0.8,3.7,1.5,4.6,2.2c0.8,0.7,1.3,1.7,1.3,2.9c0,1.1-0.4,2-1.3,2.7c-0.9,0.7-2.1,1-3.9,1c-2.1,0-3.7-0.4-4.7-1.3
				c-1-0.9-1.5-2.4-1.5-4.4h-8.1l0,0.1c-0.1,4.1,1.3,7.1,4.1,9c2.8,1.9,6.2,2.9,10.3,2.9c4.1,0,7.3-0.9,9.8-2.7
				c2.5-1.8,3.7-4.2,3.7-7.4C165.3,271.7,164.2,269.2,162.1,267.4z"/>
		</g>
	</g>
</g>
</svg>
