<?xml version="1.0" encoding="utf-8"?>
<!-- Generator: Adobe Illustrator 25.2.3, SVG Export Plug-In . SVG Version: 6.00 Build 0)  -->
<svg version="1.1" id="Layer_1" xmlns="http://www.w3.org/2000/svg" xmlns:xlink="http://www.w3.org/1999/xlink" x="0px" y="0px"
	 viewBox="0 0 512 512" style="enable-background:new 0 0 512 512;" xml:space="preserve">
<style type="text/css">
	.st0{fill:#726E75;}
</style>
<g>
	<g>
		<path class="st0" d="M476.4,31.1c-4.4-2.9-10.5-0.7-12,4.4l-24.4,85.3L433,38.3c-0.5-5.8-7.2-9.1-12.1-6
			c-26.7,17.1-48.2,55.5-56,100.4c-5.6,31.7-3.8,62.9,5,87.8c3,8.6,6.8,16.1,11.2,22.5l-9.9,15.6c-20.8-18.8-46.1-32.3-73.6-39.1
			v-19c11.9-1.8,21-12.1,21-24.4c0-13.6-11.1-24.7-24.7-24.7s-24.7,11.1-24.7,24.7c0,9.2,5.1,17.3,12.6,21.5v18.8
			c-8.4-1.3-17-1.9-25.8-1.9s-17.3,0.7-25.8,1.9v-18.8c7.5-4.2,12.6-12.3,12.6-21.5c0-13.6-11.1-24.7-24.7-24.7
			s-24.7,11.1-24.7,24.7c0,12.4,9.1,22.7,21,24.4v19c-27.6,6.8-52.8,20.3-73.6,39.1l-9.9-15.6c4.4-6.4,8.2-13.9,11.2-22.5
			c8.8-24.9,10.6-56.1,5-87.8c-7.9-44.9-29.4-83.3-56-100.4c-4.9-3.1-11.6,0.2-12.1,6l-6.9,82.5L47.6,35.4c-1.4-5.1-7.6-7.3-12-4.4
			C6.8,50.5-6.6,102.7,3.1,158c5.6,31.7,17.9,60.5,34.6,80.9c10.5,12.8,22.1,21.5,33.9,25.8c0.2,0.9,0.5,1.7,1,2.5l28.4,44.6
			c-1.3,2.8-2.6,5.6-3.8,8.5c-0.8,1.9-0.8,4.1,0,6.1c1.6,3.7,3.3,7.4,5.1,11C82.2,340.8,64.6,354,55.9,373c-5.5,11.9-7,25-4.6,37.8
			c1,5.1,6.9,8,11.5,5.5l14.3-7.8c-0.1,0.8-0.2,1.6-0.2,2.4c-1,13,2,25.9,8.7,37.1c2.7,4.5,9.2,5.1,12.7,1.2l17.5-19.8
			c0.7,9.2,3.4,18.4,8.3,26.9c6.6,11.3,16.4,20.1,28.3,25.5c4.8,2.2,10.5-1.1,11.1-6.3l7.6-65.4c25.3,14.4,54.4,22.3,84.9,22.3
			c10.4,0,20.7-0.9,30.8-2.8c4.3-0.8,7.1-4.9,6.4-9.2c-0.8-4.3-4.9-7.1-9.2-6.4c-9.2,1.7-18.6,2.5-28,2.5
			c-62.1,0-117.9-36.4-142.9-93.1c25-56.6,80.7-93.1,142.9-93.1s117.9,36.4,142.9,93.1c-16.7,37.8-48.2,67.8-86.8,82.7
			c-4.1,1.6-6.1,6.1-4.5,10.2c1.6,4.1,6.1,6.1,10.2,4.5c8-3.1,15.8-6.8,23.2-11l7.6,65.5c0.6,5.2,6.3,8.4,11.1,6.3
			c11.9-5.4,21.7-14.2,28.3-25.5c4.9-8.4,7.7-17.6,8.3-26.9l17.5,19.8c3.5,3.9,10,3.3,12.7-1.2c6.7-11.2,9.7-24,8.7-37.1
			c-0.1-0.8-0.1-1.6-0.2-2.4l14.3,7.8c4.6,2.5,10.5-0.3,11.5-5.5c2.5-12.8,0.9-25.9-4.6-37.8c-8.7-19-26.3-32.1-46.4-35.6
			c1.8-3.6,3.5-7.3,5.1-11c0.8-1.9,0.8-4.1,0-6.1c-1.2-2.9-2.5-5.7-3.8-8.5l28.4-44.6c0.5-0.8,0.8-1.6,1-2.5
			c11.8-4.3,23.4-13,33.9-25.8c16.8-20.4,29.1-49.1,34.6-80.9C518.6,102.7,505.2,50.5,476.4,31.1z M18.7,155.3
			C11.3,113,18.5,72.2,35.9,51.9l32.8,114.7c1,3.7,4.7,6.1,8.5,5.7c3.7-0.4,6.6-3.5,6.9-7.2l9.3-110.7
			c17.8,17.5,32.2,47.6,38.1,81.1c10.1,57.5-7.2,110.7-37.8,116.1C63.2,256.9,28.8,212.8,18.7,155.3z M144.9,391.6
			c3.7,3.1,7.5,6,11.4,8.8l-7.1,60.9c-4.6-3.6-8.5-8.1-11.5-13.2C127,429.7,130.1,406.5,144.9,391.6z M133.4,380.9
			c-5.7,5.8-10,12.5-13,19.7c-0.5,0.4-1,0.8-1.5,1.3l-24.3,27.6c-1.7-5.6-2.4-11.5-1.9-17.4c1.5-18.9,14.2-34.9,32-40.7
			C127.4,374.6,130.3,377.8,133.4,380.9z M114.7,358.2c-13.5,5.8-24.4,16.1-31,28.8c-0.3,0.1-0.7,0.3-1,0.5l-16.6,9
			c0.3-5.8,1.7-11.6,4.2-17c7.3-16,23.1-26.5,40.5-27.2C112,354.3,113.3,356.3,114.7,358.2z M109.7,296l-18.1-28.4
			c1.6-0.1,3.2-0.3,4.8-0.6c8.7-1.5,16.6-5.5,23.6-11.6l9.3,14.6C122.1,278,115.5,286.7,109.7,296z M218.1,185.1
			c-4.9,0-8.9-4-8.9-8.9c0-4.9,4-8.9,8.9-8.9c4.9,0,8.9,4,8.9,8.9S223.1,185.1,218.1,185.1z M284.9,176.1c0-4.9,4-8.9,8.9-8.9
			c4.9,0,8.9,4,8.9,8.9c0,4.9-4,8.9-8.9,8.9C288.9,185.1,284.9,181.1,284.9,176.1z M374.2,448.1c-3,5.1-6.9,9.6-11.5,13.2l-7.1-61
			c3.9-2.8,7.7-5.7,11.3-8.8C381.9,406.4,385,429.7,374.2,448.1z M417.5,429.5l-24.3-27.6c-0.5-0.5-1-0.9-1.5-1.3
			c-3-7.2-7.4-14-13.1-19.8c3-3.1,5.9-6.2,8.7-9.5c17.8,5.8,30.6,21.9,32.1,40.8C419.8,418,419.2,423.9,417.5,429.5z M441.8,379.5
			c2.5,5.4,3.9,11.2,4.2,17l-16.6-9c-0.3-0.2-0.7-0.3-1-0.5c-6.6-12.8-17.5-23.1-31-28.9c1.3-1.9,2.7-3.9,3.9-5.9
			C418.6,353.1,434.4,363.6,441.8,379.5z M402.3,296c-5.8-9.3-12.3-18-19.6-26l9.3-14.6c7,6.1,14.9,10.1,23.6,11.6
			c1.6,0.3,3.2,0.5,4.8,0.6L402.3,296z M493.3,155.3c-9.5,54.4-40.8,96.7-70,96.7c-1.7,0-3.4-0.1-5.1-0.4
			c-30.6-5.4-47.9-58.5-37.8-116.1c5.9-33.5,20.3-63.6,38.1-81.1l9.3,110.7c0.3,3.7,3.3,6.7,6.9,7.2c3.8,0.4,7.4-2,8.5-5.7
			l32.8-114.7C493.5,72.2,500.7,113,493.3,155.3z"/>
	</g>
</g>
</svg>
