<?xml version="1.0" encoding="utf-8"?>
<!-- Generator: Adobe Illustrator 25.2.3, SVG Export Plug-In . SVG Version: 6.00 Build 0)  -->
<svg version="1.1" id="Capa_1" xmlns="http://www.w3.org/2000/svg" xmlns:xlink="http://www.w3.org/1999/xlink" x="0px" y="0px"
	 viewBox="0 0 209.3 209.3" style="enable-background:new 0 0 209.3 209.3;" xml:space="preserve">
<style type="text/css">
	.st0{fill:#726E75;}
</style>
<g>
	<g>
		<path class="st0" d="M88.4,127.9c-2.5-3.8-5.7-7.1-8.4-10.8c-1.9-2.6-3.9-5.2-5-8.2c-3.5-9.5-1.8-18.3,4.8-25.8
			c3.2-3.6,7-6.8,10.5-10.1c5-4.7,8.3-10.1,8.5-17.3c0.3-7.7-3.5-13.9-10.3-15.8c-3.5-1-10.8-1.5-10.8-1.3
			c-10.5,0.5-20.6,2.7-29.8,8c-8.4,4.8-14.5,11.7-16.1,21.7c-1.4,8.4-0.6,16.9,2.3,24.8c2.7,7.1,6,14,9.2,20.9
			c3.7,8.1,6.1,16.6,6.3,25.6c0.1,2.3,0.1,4.7,0.6,7c1.5,7.6,5,13.8,12.2,17.1c4.3,2,8.9,1.6,13.4,1c8.5-1.2,14.1-6.3,15.8-14.2
			C93.3,142.5,93,134.8,88.4,127.9z"/>
		<path class="st0" d="M100.6,26.9c3.2-3.9,4.4-8.4,4.5-13.9c-0.1-0.8-0.2-2.2-0.4-3.5c-0.2-1.1-0.5-2.2-0.9-3.3
			c-2.5-6.8-8.9-8.2-14-3.2c-5.1,5-6.7,16-3.4,22.4C89.7,31.8,96.1,32.4,100.6,26.9z"/>
		<path class="st0" d="M76.3,26.4c3.9-3.9,4.8-11.6,1.9-16.3c-2.6-4.2-7.1-4.4-10.1-0.5c-2,2.6-2.8,5.5-2.8,8.8
			c0,2.8,0.6,5.2,1.9,7.1C69.6,29,73.4,29.3,76.3,26.4z"/>
		<path class="st0" d="M59.3,28.9c1.6-2,2.1-4.4,2.2-7c-0.1-2.6-0.6-5.1-2.3-7.1c-2.1-2.5-5-2.5-7.1,0C49.1,18.4,49,25.4,52,29
			C54.1,31.6,57.2,31.6,59.3,28.9z"/>
		<path class="st0" d="M48.1,33.6c1.8-3.2,0.7-8.6-2.1-10.8c-2.1-1.7-4.7-1.2-5.8,1.2c-0.5,1.1-0.7,2.5-1.1,3.7
			c0.3,2.8,1.1,5.3,3.2,7.1C44.4,36.5,46.8,36,48.1,33.6z"/>
		<path class="st0" d="M38.7,42c0.8-1.3,1.1-2.8,1.7-4.4c-0.6-1.5-0.9-2.9-1.6-4.1c-1.2-2-3.5-1.9-5-0.2c-1.8,2.2-2,6.3-0.3,8.6
			C35,44,37.3,44.1,38.7,42z"/>
		<path class="st0" d="M134,84.3c0-0.2-7.1-1.6-10.8-1.6c-7.1,0-12.4,5-14.2,12.5c-1.7,7,0,13.1,3.6,19c2.5,4.2,5.3,8.2,7.5,12.6
			c4.4,9,3.7,18-2.2,26.2c-1.8,2.6-4.5,4.6-7,6.6c-3.6,2.8-7.5,5.2-11,8.2c-6.2,5.4-8.6,12.8-9.1,20.9c-0.5,8.2,3.5,14.5,11.4,17.9
			c4.2,1.8,8.5,3.4,13.2,2.7c7.8-1.3,12.9-6.3,16.3-13.3c1-2.1,1.7-4.3,2.4-6.6c2.6-8.7,7.2-16.2,12.9-23
			c4.9-5.8,9.9-11.5,14.4-17.7c5-6.9,8-14.8,8.9-23.3c1.1-10.1-2.9-18.4-9.7-25.3C153.1,92.4,144,87.6,134,84.3z"/>
		<path class="st0" d="M129.1,69.4c4.9-5.3,6.3-16.3,2.7-22.5c-3.6-6.2-10.1-6.5-14.3-0.7c-0.7,0.9-1.3,1.9-1.8,2.9
			c-0.6,1.2-1,2.5-1.3,3.2c-1.3,5.3-1.3,10.1,0.7,14.7C117.9,73.6,124.2,74.6,129.1,69.4z"/>
		<path class="st0" d="M147.6,74.6c1.8-1.5,3-3.6,3.7-6.3c0.9-3.1,0.9-6.2-0.3-9.2c-1.9-4.6-6.3-5.6-9.9-2.2
			c-4,3.8-5.2,11.4-2.5,16.2C140.6,76.6,144.4,77.3,147.6,74.6z"/>
		<path class="st0" d="M161.4,82c3.8-2.7,5.6-9.4,3.6-13.6c-1.4-2.9-4.2-3.7-6.9-1.9c-2.2,1.5-3.3,3.7-4.1,6.2
			c-0.6,2.5-0.7,4.9,0.3,7.3C155.7,83.1,158.6,83.9,161.4,82z"/>
		<path class="st0" d="M163.9,87.5c0.6,2.6,2.8,3.8,5.2,2.7c2.6-1.1,4-3.3,5-6c0-1.3,0.2-2.6,0-3.8c-0.5-2.7-2.8-3.8-5.3-2.7
			C165.5,79,163,83.9,163.9,87.5z"/>
		<path class="st0" d="M177.7,91.1c-1-2.1-3.1-2.7-4.8-1.2c-1,0.9-1.7,2.3-2.7,3.5c0.1,1.6,0,3.2,0.5,4.7c0.7,2.4,3,2.9,5,1.4
			C177.9,97.7,178.9,93.6,177.7,91.1z"/>
	</g>
</g>
</svg>
