<?xml version="1.0" encoding="utf-8"?>
<!-- Generator: Adobe Illustrator 25.2.3, SVG Export Plug-In . SVG Version: 6.00 Build 0)  -->
<svg version="1.1" id="Layer_1" xmlns="http://www.w3.org/2000/svg" xmlns:xlink="http://www.w3.org/1999/xlink" x="0px" y="0px"
	 viewBox="0 0 512 512" style="enable-background:new 0 0 512 512;" xml:space="preserve">
<style type="text/css">
	.st0{fill:#726E75;}
</style>
<path class="st0" d="M446.1,65.9C406.2,26,353.2,2.7,296.8,0.2c-56-2.4-110.5,15.9-153.4,51.5c-13.8,11.5-20,29-16.1,45.7
	c0.6,2.8,1.2,5.6,1.8,8.6c2.9,14.5,6.2,31,20,44.8c0.5,0.5,1,0.9,1.4,1.4c-14.3,2.9-30.3,6.3-43.9,19.8
	c-13.7,13.7-17.5,30.5-20.9,45.4c-2.9,12.5-5.3,23.3-12.9,30.9c-7.4,7.4-17.6,9.4-29.5,11.8c-11.7,2.3-25,5-37.1,13.5
	c-6.8,4.8-8.4,14.1-3.6,20.9c4.8,6.8,14.2,8.4,20.9,3.6c6.9-4.8,15.6-6.6,25.6-8.6c14.5-2.9,31-6.2,44.8-20
	c13.7-13.7,17.5-30.5,20.9-45.4c2.9-12.5,5.3-23.3,12.9-30.9c7.4-7.4,17.6-9.4,29.5-11.8c10.6-2.1,22.5-4.5,33.5-11.2
	c12.5,2.5,24.3,4.3,32.5,12.4c7,7,9.2,16.6,11.5,27.7c-5.7,2.5-12.4,3.8-19.7,5.3c-14.5,2.9-31,6.2-44.8,20
	c-13.7,13.7-17.5,30.5-20.9,45.4c-2.9,12.5-5.3,23.3-12.9,30.9c-7.4,7.4-17.6,9.4-29.5,11.8c-14.5,2.9-31,6.2-44.8,20
	s-17.1,30.3-20,44.8c-2.4,11.8-4.4,22.1-11.8,29.5c-4.5,4.5-10.1,7.3-19.1,9.6c-8,2-12.9,10.2-10.9,18.2c2,8.1,10.2,12.9,18.2,10.9
	c9.7-2.4,22.2-6.6,33-17.4c13.8-13.8,17.1-30.3,20-44.8c2.4-11.8,4.4-22.1,11.8-29.5s17.6-9.4,29.5-11.8c14.5-2.9,31-6.2,44.8-20
	c13.7-13.7,17.5-30.5,20.9-45.4c2.9-12.5,5.3-23.3,12.9-30.9c7.4-7.4,17.6-9.4,29.5-11.8c7-1.4,14.5-2.9,22-5.7
	c2.8,6.1,6.6,12,12.2,17.5c11.9,11.9,25.9,16,38.8,18.8c-4.7,1.5-9.8,2.5-15.2,3.6c-14.5,2.9-31,6.2-44.8,20
	c-13.7,13.7-17.5,30.5-20.9,45.4c-2.9,12.5-5.3,23.3-12.9,30.9c-7.4,7.4-17.6,9.4-29.5,11.8c-14.5,2.9-31,6.2-44.8,20
	c-13.8,13.8-17.1,30.3-20,44.8c-2.6,13-4.9,25.1-15.6,32.6c-6.8,4.8-8.4,14.1-3.6,20.9c4.8,6.8,14.1,8.4,20.9,3.6
	c18.6-13.2,23.6-31,27.7-51.3c2.4-11.8,4.4-22.1,11.8-29.5c7.4-7.4,17.6-9.4,29.5-11.8c14.5-2.9,31-6.2,44.8-20
	c13.7-13.7,17.5-30.5,20.9-45.4c2.9-12.5,5.3-23.3,12.9-30.9c7.4-7.4,17.6-9.4,29.5-11.8c14.5-2.9,31-6.2,44.8-20
	c7.4,7.4,9.4,17.6,11.8,29.5c1.5,7.6,3.1,15.7,6.3,23.7c-1.7,0.4-3.4,0.7-5.2,1.1c-14.5,2.9-31,6.2-44.8,20
	c-13.7,13.7-17.5,30.5-20.9,45.4c-2.9,12.5-5.3,23.3-12.9,30.9c-7.4,7.4-17.6,9.4-29.5,11.8c-14.5,2.9-31,6.2-44.8,20
	c-5.7,5.7-10.1,12.4-13.4,20.3c-3.1,7.7,0.5,16.4,8.2,19.6c7.7,3.2,16.4-0.5,19.6-8.2c6.6-16.1,19.5-19,36.3-22.3
	c14.5-2.9,31-6.2,44.8-20c13.7-13.7,17.5-30.5,20.9-45.4c2.9-12.5,5.3-23.3,12.9-30.9c7.4-7.4,17.6-9.4,29.5-11.8
	c6.1-1.2,12.3-2.5,18.6-4.5c3.9,3.1,8.3,5.6,13.1,7.8c35.6,15.7,78.1,0.7,98.6-32.5c7.7-12.4,14.1-25.7,19.2-39.4
	c14.9-39.9,18.1-83,9.4-124.8C498.3,136.1,477.2,97,446.1,65.9z M469.7,293.2c-4.4,11.9-10,23.3-16.7,34.1c-13,21-39.8,30.2-61,20.8
	c-3.9-1.7-6.9-3.7-9.6-6.4c-7.4-7.4-9.4-17.6-11.8-29.5c-2.9-14.5-6.2-31-20-44.8s-30.3-17.1-44.8-20c-11.8-2.4-22.1-4.4-29.5-11.8
	s-9.4-17.6-11.8-29.5c-2.9-14.5-6.2-31-20-44.8c-13.8-13.8-30.3-17.1-44.8-20c-11.8-2.4-22.1-4.4-29.5-11.8s-9.4-17.6-11.8-29.5
	c-0.6-3.1-1.3-6.3-2-9.5c-1.3-5.5,1-11.6,6.1-15.8C199,44.6,243.1,29.6,287,29.6c50,0,99.7,19.3,137.9,57.5
	C478.7,141,496.3,221.9,469.7,293.2z"/>
<path class="st0" d="M304.9,61c-8.2-0.9-15.6,5.1-16.5,13.3c-0.9,8.2,5.1,15.6,13.3,16.5c30.8,3.3,58.7,16.7,80.7,38.8
	c21.3,21.3,35,49.7,38.6,79.9c1,8.2,8.4,14.1,16.6,13.1c8.2-1,14.1-8.4,13.1-16.6c-4.3-36.8-21.1-71.5-47.2-97.6
	C376.7,81.4,342.6,65,304.9,61z"/>
</svg>
