<?xml version="1.0" encoding="utf-8"?>
<!-- Generator: Adobe Illustrator 25.2.3, SVG Export Plug-In . SVG Version: 6.00 Build 0)  -->
<svg version="1.1" id="Layer_1" xmlns="http://www.w3.org/2000/svg" xmlns:xlink="http://www.w3.org/1999/xlink" x="0px" y="0px"
	 viewBox="0 0 512 512" style="enable-background:new 0 0 512 512;" xml:space="preserve">
<style type="text/css">
	.st0{fill:#726E75;}
</style>
<path class="st0" d="M372.4,417.6c3.5,0,6.3-2.8,6.3-6.3s-2.8-6.3-6.3-6.3c-3.5,0-6.3,2.8-6.3,6.3l0,0
	C366,414.8,368.9,417.6,372.4,417.6z"/>
<path class="st0" d="M351.5,434.9c-3.8,0-6.8,3.1-6.8,6.8c0,3.8,3.1,6.8,6.8,6.8c3.8,0,6.8-3.1,6.8-6.8c0,0,0,0,0,0
	C358.3,438,355.3,434.9,351.5,434.9z"/>
<path class="st0" d="M392.6,441.2c0,4.1,3.3,7.3,7.3,7.3s7.3-3.3,7.3-7.3c0-4.1-3.3-7.3-7.3-7.3l0,0
	C395.9,433.9,392.6,437.2,392.6,441.2z"/>
<path class="st0" d="M372.9,471.6c-3.5,0-6.3,2.8-6.3,6.3s2.8,6.3,6.3,6.3s6.3-2.8,6.3-6.3c0,0,0,0,0,0
	C379.1,474.4,376.3,471.6,372.9,471.6z"/>
<path class="st0" d="M415.8,480.6c3.6,0,6.5-2.9,6.5-6.5c0-3.6-2.9-6.5-6.5-6.5c-3.6,0-6.5,2.9-6.5,6.5c0,0,0,0,0,0
	C409.3,477.7,412.2,480.6,415.8,480.6z"/>
<path class="st0" d="M323.6,461.5c-4,0-7.3,3.3-7.3,7.3c0,4,3.3,7.3,7.3,7.3c4,0,7.3-3.3,7.3-7.3c0,0,0,0,0,0
	C330.9,464.7,327.6,461.5,323.6,461.5z"/>
<path class="st0" d="M275.9,130.9c3.5,0,6.3-2.8,6.3-6.3s-2.8-6.3-6.3-6.3c-3.5,0-6.3,2.8-6.3,6.3c0,0,0,0,0,0
	C269.5,128.1,272.4,130.9,275.9,130.9z"/>
<path class="st0" d="M160.5,152.2c3.8,0,6.8-3.1,6.8-6.8s-3.1-6.8-6.8-6.8s-6.8,3.1-6.8,6.8c0,0,0,0,0,0
	C153.7,149.1,156.8,152.2,160.5,152.2L160.5,152.2z"/>
<path class="st0" d="M275.2,181.4c4.1,0,7.3-3.3,7.3-7.3s-3.3-7.3-7.3-7.3c-4.1,0-7.3,3.3-7.3,7.3c0,0,0,0,0,0
	C267.9,178.1,271.2,181.4,275.2,181.4z"/>
<path class="st0" d="M189.7,187.7c3.5,0,6.3-2.8,6.3-6.3s-2.8-6.3-6.3-6.3s-6.3,2.8-6.3,6.3l0,0
	C183.5,184.9,186.2,187.7,189.7,187.7z"/>
<path class="st0" d="M330.1,184.2c3.6,0,6.5-2.9,6.5-6.5c0-3.6-2.9-6.5-6.5-6.5c-3.6,0-6.5,2.9-6.5,6.5c0,0,0,0,0,0
	C323.5,181.2,326.4,184.2,330.1,184.2L330.1,184.2z"/>
<path class="st0" d="M120.9,179.6c4,0,7.3-3.3,7.3-7.3c0-4-3.3-7.3-7.3-7.3c-4,0-7.3,3.3-7.3,7.3c0,0,0,0,0,0
	C113.7,176.4,116.9,179.6,120.9,179.6z"/>
<path class="st0" d="M219,152.2c3.8,0,6.8-3.1,6.8-6.8s-3.1-6.8-6.8-6.8s-6.8,3.1-6.8,6.8c0,0,0,0,0,0
	C212.1,149.1,215.2,152.2,219,152.2L219,152.2z"/>
<path class="st0" d="M405.1,407.8c-0.1-0.1-0.1-0.2-0.2-0.2c-12.9-16.6-31.8-25.7-50.5-24.3c-1.1,0.1-2.2,0.2-3.3,0.4l27.7-132h0.5
	c6.8,0,12.3-5.5,12.3-12.3v-29.9c0-5.1-3.1-9.7-7.9-11.5c-4.5-17.8-20.1-31.5-35.3-44.9c-7.6-6.7-14.8-13-20.3-19.6
	c-18-21.5-73.7-46.9-115.8-46.2c-22.2,0.4-34.4,8.4-46.2,16.2c-1.4,0.9-2.7,1.8-4.1,2.7L132,60.2c0.2-0.6,0.4-1.2,0.4-1.9l0.8-13.1
	c0.3-6.1-1.3-12.2-4.6-17.4l-8.6-13.2c-3.2-4.9-9.7-6.2-14.6-3c0,0,0,0,0,0L72.3,33.5c-4.8,3.2-6.2,9.7-3,14.6l8.8,13.4
	c3.3,5,8,8.8,13.5,10.9l12.1,4.7c0.6,0.2,1.3,0.4,2,0.4l27,41.1c-1,0.2-2,0.4-3.1,0.5c-17.7,2.8-35.6,17.6-53,43.9
	c-7.1,10.9-13.4,22.2-18.9,34.1c-6.5,0.4-11.6,5.8-11.6,12.3v29.9c0,6.8,5.5,12.3,12.3,12.3h0.6l12.1,54c-3.3,2-6.1,4.8-8.1,8.2
	c-4.5,7.2-6.1,17-4.1,24.9c2.8,11,12.6,18.7,23.9,18.9l25.9,115.6c0,0.1,0,0.2,0.1,0.3c4.7,17,18.7,28.4,34.9,28.4h316.1
	c3.3,0,6-2.7,6-6c0-1.2-0.4-2.4-1.1-3.5L405.1,407.8z M379.7,239.3c0,0.2-0.2,0.3-0.3,0.3H228.2c8.3-5.1,10.8-15.8,5.8-24.1
	c-1.7-2.8-4.2-5.1-7.1-6.5h152.6c0.2,0,0.3,0.2,0.3,0.3L379.7,239.3z M105.2,64.8l-9.3-3.6c-3.2-1.2-6-3.5-7.9-6.4l-8-12.1
	l30.6-20.1l7.8,11.9c2,3,2.9,6.5,2.7,10.1l-0.6,10.1L105.2,64.8z M116.4,71.8l6.2-4.1l29.2,44.4c-2.3,1.1-4.6,2.2-6.9,3L116.4,71.8z
	 M131.5,131c19.4-3.1,31.1-10.8,41.3-17.6c11.3-7.4,21-13.9,39.8-14.2c30.9-0.6,87.2,19.1,106.4,41.9c6.1,7.2,14,14.2,21.6,20.9
	c12.5,11,25.4,22.4,30.4,35H71C82,174.5,106.1,135,131.5,131L131.5,131z M224.5,224.7c0,3.1-2.5,5.6-5.6,5.6c-3.1,0-5.6-2.5-5.6-5.6
	c0-3.1,2.5-5.6,5.6-5.6C222,219.1,224.5,221.6,224.5,224.7z M58.5,239.6c-0.2,0-0.3-0.2-0.3-0.3v-29.9c0-0.2,0.2-0.3,0.3-0.3h152.6
	c-8.7,4.3-12.2,14.8-7.9,23.5c0.9,1.8,2.1,3.4,3.5,4.8l-1,2.3L58.5,239.6z M70.6,335.8c-1.1-5.4-0.1-10.9,2.7-15.6
	c0.3-0.4,0.6-0.8,0.9-1.3l5.9,26.4C75.4,344.1,71.8,340.4,70.6,335.8L70.6,335.8z M71.4,251.6h129L189,277.1
	c-6.2,13.9-15.1,26.4-26.1,36.9c-23.9-14.3-53.6-14.7-77.8-0.9L71.4,251.6z M87.9,325.4c19.6-12.7,44.5-13.9,65.2-3.2
	c-17.6,13.3-38.7,21.4-60.8,23.1L87.9,325.4z M95,357.1c25.2-2.3,49.1-12.1,68.8-28c28.2,22.3,32.9,63.3,10.6,91.5
	c-12.4,15.6-31.2,24.7-51,24.7c-2.9,0-5.8-0.2-8.7-0.6L95,357.1z M269,490H143.7c-8.1,0-15.4-4.5-19.9-11.7h151.8L269,490z
	 M119.5,466.3l-2.1-9.4c2,0.2,3.9,0.2,5.9,0.2c42.6,0,77.1-34.5,77.1-77.1c0-22.8-10.1-44.5-27.6-59.1
	c11.4-11.2,20.6-24.4,27.1-39.1l13.5-30.3h153.1l-28.5,135.7c-9.7,4.4-17.8,11.8-23,21.1l-32.7,57.8H119.5z M282.8,490l42.8-75.6
	c6-11,17.2-18.3,29.8-19.2c14.6-1.1,29.6,6.2,40,19.6l52.8,75.2H282.8z"/>
</svg>
