<?xml version="1.0" encoding="utf-8"?>
<!-- Generator: Adobe Illustrator 25.2.3, SVG Export Plug-In . SVG Version: 6.00 Build 0)  -->
<svg version="1.1" id="Capa_1" xmlns="http://www.w3.org/2000/svg" xmlns:xlink="http://www.w3.org/1999/xlink" x="0px" y="0px"
	 viewBox="0 0 512 512" style="enable-background:new 0 0 512 512;" xml:space="preserve">
<style type="text/css">
	.st0{fill:#726E75;}
</style>
<g>
	<g>
		<path class="st0" d="M391.9,402.3l-21.3,78.6c-1.4,8-8.4,14-16.4,14.1H156.1c-8.2-0.1-15.2-6-16.8-14.9l-21.1-77.8l-16.5,4.5
			l20.9,77.1c2.8,16.2,16.8,28,33.3,28.2h198.3c16.4-0.2,30.3-12.1,32.9-27.5l21.1-77.8L391.9,402.3z"/>
	</g>
</g>
<g>
	<g>
		<rect x="246.6" y="21.8" class="st0" width="17.1" height="481.6"/>
	</g>
</g>
<g>
	<g>
		
			<rect x="144.2" y="94.9" transform="matrix(0.9164 -0.4002 0.4002 0.9164 -110.5239 86.8884)" class="st0" width="17.1" height="426.4"/>
	</g>
</g>
<g>
	<g>
		
			<rect x="191.1" y="44.2" transform="matrix(0.9793 -0.2023 0.2023 0.9793 -51.7525 46.1046)" class="st0" width="17.1" height="464"/>
	</g>
</g>
<g>
	<g>
		
			<rect x="114.4" y="185.9" transform="matrix(0.7974 -0.6035 0.6035 0.7974 -193.8992 147.6499)" class="st0" width="17.1" height="353.4"/>
	</g>
</g>
<g>
	<g>
		<path class="st0" d="M510.5,249.3c-0.8-9.5-2.7-18.8-5.8-27.8c9.9-44.5-10.7-90.7-50.8-113.2l-2.2-1.2
			c-11.3-33.9-41-58.9-76.6-64.3l-10-1.3l-0.1-0.2C345.8,3.9,299.7-10.8,262.3,8.5c-2.2,1.1-4.3,2.3-6.3,3.7
			c-15.8-9.9-34.5-13.7-53.1-10.7c-20.2,3.3-38,14.3-50,30.9c-2,2.8-3.9,5.8-5.4,8.6l-10.8,1.9c-35.4,5.3-65.1,30.2-76.5,63.9
			l-2.5,1.3c-40,22.5-60.5,68.8-50.5,113.4c-3.1,9.1-5.1,18.5-5.9,28.1c-3.1,41.4,11.9,82.1,41.9,112L191,484.1
			c16.5,17.6,39.8,27.8,64,27.9l0.1-17.1c-19.7-0.1-38.6-8.4-52-22.9c-0.3-0.3-0.5-0.5-0.8-0.8L54.8,348.9
			c-25.9-25.9-39.1-61.6-36.3-98c0.7-8.9,2.7-17.6,5.7-26c0.6-1.6,0.7-3.4,0.3-5c-9.5-37.9,7.6-77.7,41.5-96.8l5.4-2.8
			c2-1.1,3.6-2.9,4.2-5.1c8.6-29.2,33.6-50.9,63.7-55.4l14.7-2.2c2.6-0.4,4.8-1.9,6.1-4.2l2.4-4.1c1.3-2.4,2.7-4.7,4.3-6.9
			c9.3-12.9,23.1-21.5,38.9-24.1c15.8-2.6,31.5,1.2,44.5,10.5c1.4,1,3.2,1.6,5,1.6h1.9c1.8,0,3.6-0.6,5.1-1.7c2.6-1.9,5.3-3.6,8.1-5
			c29-15,64.8-3.5,79.6,25.1l1.9,4.1c1.2,2.7,3.7,4.5,6.6,4.9l14.5,1.9c30.2,4.5,55.2,26.4,63.7,55.6c0.6,2.2,2.1,4.1,4.2,5.1
			l5.1,2.7c34,19.1,51.2,58.8,41.8,96.6c-0.4,1.6-0.3,3.4,0.3,4.9c3,8.4,4.9,17.1,5.7,25.9c2.9,36.5-10.3,72.4-35.6,97.8
			L309.8,471.3c-0.3,0.2-0.6,0.5-0.8,0.8c-13.4,14.4-32.4,22.8-52.1,22.9L257,512c24.2-0.1,47.5-10.3,64.1-27.9l148.3-123.1
			C498.8,331.6,513.8,290.8,510.5,249.3z"/>
	</g>
</g>
<g>
	<g>
		
			<rect x="146.2" y="299.6" transform="matrix(0.4005 -0.9163 0.9163 0.4005 -66.8655 513.9836)" class="st0" width="426.4" height="17.1"/>
	</g>
</g>
<g>
	<g>
		
			<rect x="80.4" y="267.7" transform="matrix(0.2021 -0.9794 0.9794 0.2021 -21.2548 526.4079)" class="st0" width="464" height="17.1"/>
	</g>
</g>
<g>
	<g>
		
			<rect x="212.5" y="354" transform="matrix(0.6037 -0.7972 0.7972 0.6037 -134.7727 453.9295)" class="st0" width="353.4" height="17.1"/>
	</g>
</g>
</svg>
