<?xml version="1.0" encoding="utf-8"?>
<!-- Generator: Adobe Illustrator 25.2.3, SVG Export Plug-In . SVG Version: 6.00 Build 0)  -->
<svg version="1.1" id="Capa_1" xmlns="http://www.w3.org/2000/svg" xmlns:xlink="http://www.w3.org/1999/xlink" x="0px" y="0px"
	 viewBox="0 0 512 512" style="enable-background:new 0 0 512 512;" xml:space="preserve">
<style type="text/css">
	.st0{fill:#726E75;}
</style>
<g>
	<g>
		<path class="st0" d="M507.4,14.8L505,7l-7.8-2.3c-1.5-0.4-36.2-10.4-90.7,0.3c-31.4,6.1-63.3,17.9-94.7,34.9
			c-38.9,21.1-77.2,50.4-113.9,87.1C118.7,206.1,70.2,284.9,43.5,337c-29.2,56.8-39.4,94.7-39.8,96.3L0,446.9l48.8,16.3L65.1,512
			l13.6-3.6c1.6-0.4,39.4-10.7,96.3-39.8c52.1-26.7,130.8-75.2,210-154.4c36.7-36.7,66-75,87.1-113.9c17-31.4,28.8-63.3,34.9-94.7
			C517.8,50.9,507.8,16.2,507.4,14.8z M195.7,423c-12,7-23.3,13.1-33.4,18.3c-34.8,17.9-62.5,28.5-77.8,33.8l-11.9-35.7l-35.7-11.9
			c5.3-15.4,15.8-43,33.8-77.8c5.2-10.1,11.3-21.4,18.3-33.4h106.7V423z M225.7,404.6V286.3H107.4c9.7-15,20.6-30.9,33-47.4v0.1H273
			v132.6h0.1C256.6,384,240.7,394.9,225.7,404.6z M477.2,101.8c-5.8,28.2-16.6,57-32.2,85.5c-19.7,35.9-47,71.4-81.2,105.6
			c-20.5,20.5-40.9,38.8-60.8,55.2V209H163.9c16.4-19.9,34.7-40.4,55.2-60.8c34.2-34.2,69.8-61.5,105.6-81.2
			c28.5-15.6,57.3-26.5,85.5-32.2c20.3-4.1,37.4-5,50.5-4.7l-53.1,53.1l21.2,21.2l53.1-53.1C482.3,64.3,481.4,81.5,477.2,101.8z"/>
	</g>
</g>
</svg>
