<?xml version="1.0" encoding="utf-8"?>
<!-- Generator: Adobe Illustrator 25.2.3, SVG Export Plug-In . SVG Version: 6.00 Build 0)  -->
<svg version="1.1" id="Layer_1" xmlns="http://www.w3.org/2000/svg" xmlns:xlink="http://www.w3.org/1999/xlink" x="0px" y="0px"
	 viewBox="0 0 512 512" style="enable-background:new 0 0 512 512;" xml:space="preserve">
<style type="text/css">
	.st0{fill:#726E75;}
</style>
<g id="Page-1">
	<g id="_x30_10---Turtle">
		<path id="Shape" class="st0" d="M17.2,355c9.8,0,20.7-9.7,30.6-18.5c5.4-5.5,11.6-10.2,18.4-13.9c0.9-0.2,1.7-0.4,2.6-0.5
			c-1.6,22.1,1.5,44.3,9.1,65.1c-11.3,14.7-25.9,38.9-20.1,60.9c0.8,3,3.1,5.3,6.1,6.1c3.4,0.9,6.9,1.3,10.4,1.3
			c19,0,38.2-11.9,50.5-21.4c17.4,6.6,35.9,9.8,54.5,9.4c3.5,0,7-0.1,10.5-0.3c-0.1,0.9-0.3,1.8-0.5,2.7c-3.7,6.8-8.4,13-13.9,18.4
			c-12.1,13.6-25.9,29-13.9,41c6.4,5.1,14.6,7.5,22.7,6.8c7.5-0.1,14.9-1,22.3-2.6c18-3.3,34.9-11.4,48.7-23.4
			c10.6-10.6,15.4-30.5,14.4-59c41.1-13.5,78.7-35.9,110.1-65.5c4.9-4.9,9.3-9.9,13.4-14.9c1.5,1.1,2.6,2.7,3.1,4.5
			c1.5,10.7-2.4,21.4-10.5,28.5c-23.2,23.2-36.3,56.4-29.9,75.9c1.4,5.2,5.5,9.3,10.7,10.6c1.1,0.3,2.2,0.4,3.4,0.4
			c13.5,0,31.5-18,74-60.5c51.8-51.8,22-115.2-0.6-137.8c-5.5-6-12.7-10.2-20.7-12c-3.5-23.5-12.7-45.7-26.6-64.9
			c14.2-7.2,29.9-15.4,34.9-30.8c4.2-13.1,16.4-57.2-2.9-76.4c-19.3-19.2-63.4-7.1-76.4-2.9c-15.4,5-23.6,20.7-30.8,34.9
			c-19.2-13.9-41.5-23.1-65-26.6c-1.8-7.9-6-15.1-11.9-20.7c-22.6-22.6-86-52.4-137.8-0.6c-46.1,46.1-63.4,63.4-60.1,77.4
			c1.4,5.2,5.4,9.3,10.7,10.7c3.5,1.1,7.2,1.6,10.9,1.6c19.4,0,45.6-12.3,64.9-31.6c7.2-8.1,17.9-12,28.5-10.5
			c1.8,0.5,3.4,1.6,4.5,3.1c-5.2,4.2-10.2,8.7-14.9,13.4c-29.7,31.4-52,69-65.5,110.1c-28.5-1-48.4,3.8-59,14.4
			C3.3,279.4-8.2,335.5,6.7,350.4C9.4,353.3,13.2,355,17.2,355L17.2,355z M103.1,242l15.7,5.2c-5.7,15.2-10.1,30.9-13.1,46.9
			l-17.5,3.5C91.4,278.7,96.4,260,103.1,242L103.1,242z M242.7,105.7c9,0.1,18,1.4,26.7,3.9l-3.3,16.7c-18.6-6.1-38.9-4.7-56.5,3.9
			l-6.2-15.5C215.7,108.8,229.1,105.7,242.7,105.7L242.7,105.7z M396.5,226.4l-17.2,3.4c-9.4-18.1-21.4-34.7-35.8-49.2l12.1-12.1
			C372.3,185.3,386.2,204.9,396.5,226.4L396.5,226.4z M397.3,308.5l-15.5-6.2c4.6-9.6,7.2-20,7.6-30.6c0.1-8.7-1.1-17.4-3.7-25.8
			l16.7-3.3C408.9,264.4,407.1,287.9,397.3,308.5L397.3,308.5z M264.7,393.1l5.3,15.8c-18,6.7-36.6,11.7-55.6,14.9l3.5-17.4
			c4.3-0.9,8.7-1.8,13.2-2.9C242.5,400.7,253.7,397.2,264.7,393.1L264.7,393.1z M280.6,386.6c14.5-6.3,28.4-13.9,41.6-22.5
			l12.3,12.3c-15.4,10.2-31.6,18.9-48.5,26.2L280.6,386.6z M227.1,386.9c-1.9,0.5-3.7,0.9-5.6,1.3l8.8-44l56.5-15.4l23,23
			C284.3,367.9,256.4,379.8,227.1,386.9z M102.7,397.2c-14.9-19.6-19.6-49-16.8-81.7L103,312c-3.2,29.8,0.3,56.1,11.9,72.9
			L102.7,397.2z M120.6,308.5l51.3-10.2l41.8,41.8l-10.2,51.3c-32.6,4.5-58.8,0.3-71-11.9C119.9,367,116.3,340.2,120.6,308.5
			L120.6,308.5z M199.7,229.6l56.9-15.5l41.3,41.3l-15.5,57l-56.9,15.5l-41.3-41.3L199.7,229.6z M361.9,233.2l-51.7,10.3l-41.8-41.8
			l10.4-51.8c17.3,9.8,33.1,22.1,46.8,36.5C339.8,200.2,352.1,216,361.9,233.2L361.9,233.2z M298.8,316.7l15.4-56.5l54.5-10.9
			c2.4,7.1,3.6,14.5,3.5,21.9c-0.5,18-9.3,34.7-28.7,54c-6.1,6-12.6,11.6-19.5,16.7L298.8,316.7z M331.4,168.4
			c-14.5-14.4-31.1-26.5-49.2-35.8l3.4-17c21.5,10.2,41,24.1,57.8,40.9L331.4,168.4z M262.7,143.1l-10.9,54.6l-56.5,15.4l-25.3-25.4
			c5.2-6.8,10.8-13.3,16.8-19.4C207,148.1,230.2,132.9,262.7,143.1L262.7,143.1z M183.2,225.2l-15.4,56.5l-44,8.8
			c6.8-31.4,19.1-61.4,36.2-88.5L183.2,225.2z M125.2,231.3l-15.7-5.2c7.3-16.9,16-33.2,26.2-48.5l12.1,12.1
			C139.1,202.9,131.5,216.9,125.2,231.3L125.2,231.3z M73.6,438.4c0.9-12.5,5.5-24.4,13.1-34.3c5.5,8.4,12.8,15.6,21.2,21
			C98.1,432.9,86.1,437.5,73.6,438.4z M114.8,409.3l12.2-12.2c15.6,9.6,33.9,14.3,52.2,13.3c6.9-0.1,13.9-0.5,20.8-1.3l-3.4,17
			C163.8,428.9,134.4,424.1,114.8,409.3z M243.2,473.9c-18.1,18.1-60.3,24.1-68.8,19.8c3.8-6.6,8.5-12.7,13.8-18
			c7.3-7,13.2-15.4,17.4-24.6c1-3,1.5-6.1,1.6-9.3c15.4-1.9,30.6-5.1,45.5-9.4C253,452.6,249.6,467.5,243.2,473.9L243.2,473.9z
			 M367.8,349.4c-6.1,6-12.5,11.7-19.3,16.9l-12.2-12.2c6.8-5.2,13.3-10.8,19.5-16.8c6.3-6.2,12.1-12.9,17.3-20.1l15.9,6.3
			C382.8,332.9,375.7,341.5,367.8,349.4L367.8,349.4z M431.9,393.9c-27.2,27.2-51,51-60.1,54.9c-2.8-12.2,6.8-37.9,26.1-57.2
			c12.7-11.5,18.3-28.9,14.7-45.7c-1.6-5.3-4.9-9.8-9.4-13c12-17.3,19-37.6,20.3-58.6c2.9,1.5,5.5,3.5,7.7,5.8
			C446.1,295,478,347.7,431.9,393.9L431.9,393.9z M335.5,124.7c6.1-12.1,12.4-24.6,21.4-27.5c22-7.1,49.9-10.5,59.1-1.3
			c9.2,9.2,5.8,37.1-1.3,59.1c-2.9,9-15.4,15.3-27.4,21.4l-1.5,0.7c-15.1-18.8-32.2-36-51.1-51.1C335,125.7,335.3,125.2,335.5,124.7
			L335.5,124.7z M166,99.4c-16.8-3.6-34.1,2-45.7,14.7c-19,19-44.3,28.7-57.1,26.1c4-9.2,27.8-32.9,54.9-60
			C164.3,34,217,65.9,231.8,80.7c2.3,2.3,4.3,4.9,5.8,7.7c-21,1.3-41.3,8.3-58.6,20.3C175.9,104.3,171.3,101,166,99.4L166,99.4z
			 M162.6,144.2c7.8-7.9,16.5-15,25.8-21.2l6.3,15.9c-7.2,5.2-13.9,11-20.1,17.3c-6,6.1-11.7,12.5-16.9,19.3l-12.1-12.1
			C150.9,156.8,156.6,150.3,162.6,144.2L162.6,144.2z M38.1,268.8c6.5-6.5,21.1-9.8,41.6-9.6c-4.3,14.9-7.4,30.1-9.3,45.5
			c-3.2,0.1-6.3,0.7-9.3,1.6c-9.3,4.2-17.6,10.1-24.7,17.4c-5.4,5.4-11.5,10-18,13.8C14,328.9,20,286.9,38.1,268.8L38.1,268.8z"/>
		<path id="Shape_1_" class="st0" d="M460.8,238.9c14.1,0,25.6-11.5,25.6-25.6s-11.5-25.6-25.6-25.6c-14.1,0-25.6,11.5-25.6,25.6
			S446.7,238.9,460.8,238.9z M460.8,204.8c4.7,0,8.5,3.8,8.5,8.5s-3.8,8.5-8.5,8.5s-8.5-3.8-8.5-8.5S456.1,204.8,460.8,204.8z"/>
		<path id="Shape_2_" class="st0" d="M477.9,68.3c18.9,0,34.1-15.3,34.1-34.1S496.7,0,477.9,0c-18.9,0-34.1,15.3-34.1,34.1
			S459,68.3,477.9,68.3z M477.9,17.1c9.4,0,17.1,7.6,17.1,17.1s-7.6,17.1-17.1,17.1c-9.4,0-17.1-7.6-17.1-17.1
			S468.4,17.1,477.9,17.1z"/>
		<path id="Shape_3_" class="st0" d="M401.1,51.2c14.1,0,25.6-11.5,25.6-25.6S415.2,0,401.1,0c-14.1,0-25.6,11.5-25.6,25.6
			S386.9,51.2,401.1,51.2z M401.1,17.1c4.7,0,8.5,3.8,8.5,8.5s-3.8,8.5-8.5,8.5s-8.5-3.8-8.5-8.5S396.4,17.1,401.1,17.1z"/>
		<circle id="Oval" class="st0" cx="494.9" cy="170.7" r="8.5"/>
		<circle id="Oval_1_" class="st0" cx="494.9" cy="93.9" r="8.5"/>
	</g>
</g>
</svg>
