<?xml version="1.0" encoding="utf-8"?>
<!-- Generator: Adobe Illustrator 25.2.3, SVG Export Plug-In . SVG Version: 6.00 Build 0)  -->
<svg version="1.1" id="Capa_1" xmlns="http://www.w3.org/2000/svg" xmlns:xlink="http://www.w3.org/1999/xlink" x="0px" y="0px"
	 viewBox="0 0 512 512" style="enable-background:new 0 0 512 512;" xml:space="preserve">
<style type="text/css">
	.st0{fill:#348AA7;}
</style>
<g>
	<g>
		<g>
			<path class="st0" d="M7,452.2c30.3,26,64.6,55.4,131,55.4c66.4,0,100.7-29.4,131-55.4c28.6-24.6,53.4-45.8,105-45.8
				c51.6,0,76.3,21.2,105,45.8c8.4,7.2,21,6.2,28.2-2.2c7.2-8.4,6.2-21-2.2-28.2c-30.3-26-64.6-55.4-131-55.4s-100.7,29.4-131,55.4
				c-28.6,24.6-53.4,45.8-105,45.8c-51.6,0-76.3-21.2-105-45.8c-8.4-7.2-21-6.2-28.2,2.2C-2.4,432.4-1.4,445,7,452.2z"/>
		</g>
	</g>
</g>
</svg>
